<?xml version="1.0" encoding="iso-8859-1"?>
<!-- Uploaded to: SVG Repo, www.svgrepo.com, Generator: SVG Repo Mixer Tools -->
<svg height="800px" width="800px" version="1.1" id="Layer_1" xmlns="http://www.w3.org/2000/svg" xmlns:xlink="http://www.w3.org/1999/xlink" 
	 viewBox="0 0 512.001 512.001" xml:space="preserve">
<path style="fill:#9CE0B8;" d="M228.468,420.774c-81.49-73.538-228.447-89.413-228.447-89.413v180.598H511.98V331.361
	c0,0-161.579,15.875-246.821,89.413H228.468z"/>
<path style="opacity:0.4;fill:#33A854;enable-background:new    ;" d="M474.219,336.877v117.109
	c0,10.203-8.271,18.474-18.474,18.474H0.021v39.499H511.98V331.361C511.98,331.361,497.19,332.818,474.219,336.877z"/>
<circle style="fill:#FFCD00;" cx="462.101" cy="47.546" r="47.545"/>
<path style="fill:#DDB200;" d="M487.65,7.459c4.715,7.382,7.459,16.144,7.459,25.553c0,26.259-21.287,47.545-47.545,47.545
	c-9.409,0-18.171-2.744-25.553-7.459c8.444,13.22,23.237,21.993,40.086,21.993c26.258,0,47.545-21.287,47.545-47.545
	C509.643,30.696,500.87,15.904,487.65,7.459z"/>
<g style="opacity:0.5;">
	<path style="fill:#33A854;" d="M42.042,338.333c7.764,24.655,23.915,86.826,22.305,173.229h68.915
		c-0.936-82.634-13.814-133.92-19.903-153.68C87.067,348.776,62.013,342.509,42.042,338.333z"/>
	<path style="fill:#33A854;" d="M456.749,339.959c-20.68,4.389-45.572,10.685-71.4,19.499
		c-5.971,18.833-19.196,69.595-20.16,152.104h68.911C432.489,425.242,449.133,363.486,456.749,339.959z"/>
</g>
<path style="opacity:0.37;fill:#33A854;enable-background:new    ;" d="M228.468,420.816c-3.318-2.994-6.755-5.882-10.275-8.689
	l-2.953,99.874h63.631l-2.953-99.853c-3.698,2.799-7.298,5.681-10.76,8.668L228.468,420.816L228.468,420.816z"/>
<path style="fill:#9CE0B8;" d="M265.803,346.893c10.213,5.184,21.813,8.03,34.099,7.827c38.159-0.631,69.693-31.192,71.461-69.315
	c0.525-11.309-1.547-22.074-5.657-31.769c-2.064-4.869-0.783-10.491,3.076-14.108c19.949-18.704,32.412-45.296,32.412-74.799
	c0-56.623-45.902-102.525-102.525-102.525c-0.038,0-0.076,0-0.114,0c-6.472,0.007-12.359-3.68-15.018-9.579
	c-14.5-32.167-47.497-54.199-85.439-52.537c-46.039,2.016-83.29,39.395-85.184,85.44c-0.324,7.882,0.38,15.545,1.985,22.873
	c1.42,6.486-1.233,13.125-6.657,16.955c-20.02,14.134-33.1,37.438-33.1,63.809c0,31.448,18.597,58.537,45.388,70.907
	c5.782,2.669,9.065,8.893,7.904,15.154c-0.881,4.752-1.261,9.68-1.082,14.728c1.234,34.841,29.443,63.254,64.276,64.715
	c13.426,0.563,26.018-2.82,36.725-9.08L265.803,346.893z"/>
<g style="opacity:0.5;">
	<path style="fill:#33A854;" d="M368.783,239.953c19.949-18.705,32.412-45.296,32.412-74.799c0-37.557-20.198-70.39-50.319-88.248
		c8.482,14.925,13.33,32.184,13.33,50.578c0,29.503-12.465,56.094-32.412,74.799c-3.857,3.617-5.139,9.239-3.076,14.108
		c4.108,9.695,6.181,20.46,5.657,31.769c-1.768,38.123-33.303,68.684-71.461,69.315c-12.286,0.203-23.886-2.642-34.099-7.827
		l-37.447-1.304c-10.707,6.261-23.299,9.644-36.725,9.08c-8.001-0.335-15.645-2.107-22.701-5.038
		c9.493,24.109,32.584,41.571,59.69,42.708c13.426,0.563,26.018-2.82,36.725-9.081l37.447,1.304
		c10.213,5.184,21.813,8.03,34.099,7.827c38.159-0.631,69.693-31.192,71.461-69.315c0.525-11.309-1.547-22.075-5.657-31.769
		C363.644,249.193,364.925,243.571,368.783,239.953z"/>
</g>
<path style="fill:#836948;" d="M270.677,511.959h-47.242l10.058-340.206c0.217-7.335,6.225-13.168,13.563-13.168l0,0
	c7.338,0,13.345,5.833,13.563,13.168L270.677,511.959z"/>
<g>
	<circle style="fill:#FFCD00;" cx="163.451" cy="193.636" r="13.936"/>
	<circle style="fill:#FFCD00;" cx="185.214" cy="271.809" r="13.936"/>
	<circle style="fill:#FFCD00;" cx="326.599" cy="158.582" r="13.936"/>
	<circle style="fill:#FFCD00;" cx="213.08" cy="95.089" r="13.936"/>
	<circle style="fill:#FFCD00;" cx="308.743" cy="247.715" r="13.936"/>
</g>
</svg>